# xmcd
#
# Track frame offsets: 
#        150
#        13198
#        29620
#        48546
#        65413
#        79610
#        97366
#        107764
#        121690
#        138697
#        156219
#        172444
#        190068
#        210093
#        226656
#        246561
#        274485
#        290081
#        307036
#        328877
#
# Disc length: 4660 seconds
#
# Revision: 0
# Processed by: cddbd v1.5.2PL0 Copyright (c) Steve Scherf et al.
# Submitted via: ExactAudioCopy v0.99pb1
#
DISCID=36123214
DTITLE=Garou - Reviens
DYEAR=1900
DGENRE=Pop
TTITLE0=Passe ta route
TTITLE1=Et si on dormaint
TTITLE2=Heminguay
TTITLE3=L`avru
TTITLE4=Reviens (ou te caches-tu?)
TTITLE5=Pour l`amour d`une femme
TTITLE6=Pendant que mes cheveux poussent
TTITLE7=Les filles
TTITLE8=Le sucre et le sel
TTITLE9=Quand passe la passion
TTITLE10=Au coeur de la terre
TTITLE11=Priere indienne
TTITLE12=Tout cet amour la
TTITLE13=Ne me parlez plus d`elle
TTITLE14=Ton premier regard
TTITLE15=Une derniere fois encore
TTITLE16=Gitau
TTITLE17=Seul
TTITLE18=Sous le vent (en duo avec Celine Dion)
TTITLE19=Au plasir de ton corps
EXTD=
EXTT0=
EXTT1=
EXTT2=
EXTT3=
EXTT4=
EXTT5=
EXTT6=
EXTT7=
EXTT8=
EXTT9=
EXTT10=
EXTT11=
EXTT12=
EXTT13=
EXTT14=
EXTT15=
EXTT16=
EXTT17=
EXTT18=
EXTT19=
PLAYORDER=
